<svg width="24" height="24" viewBox="0 0 24 24" fill="none" xmlns="http://www.w3.org/2000/svg">
<path d="M19.7463 14.7151L19.7522 14.7423C19.7522 14.7434 19.7522 14.7445 19.7522 14.7456C19.7524 14.7603 19.751 14.7782 19.7473 14.7975C19.7399 14.8358 19.7258 14.8674 19.7093 14.8896C19.6948 14.9071 19.6735 14.927 19.6397 14.944C19.6049 14.9615 19.5386 14.985 19.4222 14.985H15.3652H15.0366L14.9062 15.2865L12.0036 21.9986L12.0036 21.9987C12.0036 21.9987 12.0036 21.9987 12.0036 21.9988C12.0035 21.9989 12.0034 21.9991 12.003 21.9994L9.09905 15.2875L8.96863 14.986H8.64016H4.58216C4.46663 14.986 4.40093 14.9624 4.36643 14.9448C4.33096 14.9268 4.30974 14.9056 4.29636 14.8884L3.90216 15.196L4.29661 14.8888C4.27838 14.8653 4.26418 14.8337 4.25722 14.7963C4.25382 14.778 4.25266 14.7609 4.25298 14.7466C4.25313 14.7396 4.25363 14.7339 4.25417 14.7296C4.25473 14.7253 4.25525 14.7232 4.25523 14.7233L4.25732 14.7149L4.25912 14.7065C4.41658 13.9697 4.92866 13.1787 5.63655 12.4818C6.34004 11.7893 7.18984 11.2366 7.94837 10.9547L8.24133 10.8458L8.27178 10.5347L8.75578 5.59174L8.77317 5.41414L8.67419 5.26566L7.17619 3.01866L7.17619 3.01866L7.1751 3.01703C7.12152 2.93734 7.11551 2.83285 7.16266 2.74458C7.20923 2.65836 7.29767 2.60501 7.39816 2.60501H16.5382C16.6384 2.60501 16.7263 2.65798 16.7725 2.74422L16.7736 2.74632C16.8193 2.83064 16.8154 2.93433 16.7601 3.01778C16.76 3.01788 16.7599 3.01797 16.7599 3.01807L15.2652 5.25962L15.1643 5.41091L15.1842 5.59165L15.7282 10.5397L15.7619 10.8464L16.0512 10.9538C16.8096 11.2352 17.6598 11.7878 18.3642 12.4815C19.0729 13.1794 19.5869 13.9732 19.7463 14.7151ZM12.0045 22.0029L12.0045 22.0028L12.0045 22.0029Z" stroke="#536471"/>
</svg>
